# xmcd
#
# Track frame offsets:
#	150
#	19245
#	42283
#	57142
#	73539
#	92276
#	109429
#	129084
#	143853
#	159353
#	178395
#	197599
#	212041
#	237009
#	251220
#	270196
#	284289
#
# Disc length: 4051 seconds
#
# Revision: 1
# Processed by: cddbd v1.5.2PL0 Copyright (c) Steve Scherf et al.
# Submitted via: EasyCDDAExtractor 15.3.0.1
#
DISCID=ed0fd111
DTITLE=Pablo Alboran - Prometo (Edicion Especial) - CD 1
DYEAR=2018
DGENRE=Latin
TTITLE0=Saturno
TTITLE1=Prometo
TTITLE2=No Vaya A Ser
TTITLE3=Cuerda Al Corazon
TTITLE4=Lo Nuestro
TTITLE5=Vivir
TTITLE6=Tu Refugio
TTITLE7=La Llave
TTITLE8=Idiota
TTITLE9=Boca De Hule
TTITLE10=Curo Tus Labios
TTITLE11=Al Paraiso
TTITLE12=Prometo (Version Piano Y Cuerda)
TTITLE13=La Llave (Featuring Piso 21)
TTITLE14=Boca De Hule (Featuring Alejandro Sanz)
TTITLE15=Al Paraiso (Featuring Carminho)
TTITLE16=Tu Refugio (Nueva Version)
EXTD=
EXTT0=
EXTT1=
EXTT2=
EXTT3=
EXTT4=
EXTT5=
EXTT6=
EXTT7=
EXTT8=
EXTT9=
EXTT10=
EXTT11=
EXTT12=
EXTT13=
EXTT14=
EXTT15=
EXTT16=
PLAYORDER=
